<svg width="70" height="17" viewBox="0 0 70 17" fill="none" xmlns="http://www.w3.org/2000/svg">
<rect x="4.37109" y="0.574463" width="65" height="16" rx="4" fill="#12131C"/>
<path d="M0.371094 8.57446L4.37109 4.57446V12.5745L0.371094 8.57446Z" fill="#12131C"/>
<path d="M16.367 11.5745L18.095 5.14846H16.709L15.656 9.57646H15.638L14.54 5.14846H13.217L12.101 9.52246H12.083L11.066 5.14846H9.65298L11.354 11.5745H12.785L13.856 7.20046H13.874L14.963 11.5745H16.367ZM21.2332 8.74846H19.1542C19.1602 8.65846 19.1782 8.55646 19.2082 8.44246C19.2442 8.32846 19.3012 8.22046 19.3792 8.11846C19.4632 8.01646 19.5712 7.93246 19.7032 7.86646C19.8412 7.79446 20.0122 7.75846 20.2162 7.75846C20.5282 7.75846 20.7592 7.84246 20.9092 8.01046C21.0652 8.17846 21.1732 8.42446 21.2332 8.74846ZM19.1542 9.55846H22.5112C22.5352 9.19846 22.5052 8.85346 22.4212 8.52346C22.3372 8.19346 22.1992 7.89946 22.0072 7.64146C21.8212 7.38346 21.5812 7.17946 21.2872 7.02946C20.9932 6.87346 20.6482 6.79546 20.2522 6.79546C19.8982 6.79546 19.5742 6.85846 19.2802 6.98446C18.9922 7.11046 18.7432 7.28446 18.5332 7.50646C18.3232 7.72246 18.1612 7.98046 18.0472 8.28046C17.9332 8.58046 17.8762 8.90446 17.8762 9.25246C17.8762 9.61246 17.9302 9.94246 18.0382 10.2425C18.1522 10.5425 18.3112 10.8005 18.5152 11.0165C18.7192 11.2325 18.9682 11.4005 19.2622 11.5205C19.5562 11.6345 19.8862 11.6915 20.2522 11.6915C20.7802 11.6915 21.2302 11.5715 21.6022 11.3315C21.9742 11.0915 22.2502 10.6925 22.4302 10.1345H21.3052C21.2632 10.2785 21.1492 10.4165 20.9632 10.5485C20.7772 10.6745 20.5552 10.7375 20.2972 10.7375C19.9372 10.7375 19.6612 10.6445 19.4692 10.4585C19.2772 10.2725 19.1722 9.97246 19.1542 9.55846ZM23.3952 5.14846V6.53446H23.9892C23.9892 6.75646 23.9472 6.94546 23.8632 7.10146C23.7792 7.25146 23.6232 7.36546 23.3952 7.44346V8.03746C23.5812 8.01346 23.7522 7.95946 23.9082 7.87546C24.0702 7.78546 24.2082 7.67446 24.3222 7.54246C24.4362 7.41046 24.5232 7.25746 24.5832 7.08346C24.6492 6.90946 24.6792 6.72346 24.6732 6.52546V5.14846H23.3952ZM25.7741 6.92146V11.5745H27.0521V9.47746C27.0521 9.26746 27.0731 9.07246 27.1151 8.89246C27.1571 8.71246 27.2261 8.55646 27.3221 8.42446C27.4241 8.28646 27.5561 8.17846 27.7181 8.10046C27.8801 8.02246 28.0781 7.98346 28.3121 7.98346C28.3901 7.98346 28.4711 7.98946 28.5551 8.00146C28.6391 8.00746 28.7111 8.01646 28.7711 8.02846V6.84046C28.6691 6.81046 28.5761 6.79546 28.4921 6.79546C28.3301 6.79546 28.1741 6.81946 28.0241 6.86746C27.8741 6.91546 27.7331 6.98446 27.6011 7.07446C27.4691 7.15846 27.3521 7.26346 27.2501 7.38946C27.1481 7.50946 27.0671 7.64146 27.0071 7.78546H26.9891V6.92146H25.7741ZM32.2459 8.74846H30.1669C30.1729 8.65846 30.1909 8.55646 30.2209 8.44246C30.2569 8.32846 30.3139 8.22046 30.3919 8.11846C30.4759 8.01646 30.5839 7.93246 30.7159 7.86646C30.8539 7.79446 31.0249 7.75846 31.2289 7.75846C31.5409 7.75846 31.7719 7.84246 31.9219 8.01046C32.0779 8.17846 32.1859 8.42446 32.2459 8.74846ZM30.1669 9.55846H33.5239C33.5479 9.19846 33.5179 8.85346 33.4339 8.52346C33.3499 8.19346 33.2119 7.89946 33.0199 7.64146C32.8339 7.38346 32.5939 7.17946 32.2999 7.02946C32.0059 6.87346 31.6609 6.79546 31.2649 6.79546C30.9109 6.79546 30.5869 6.85846 30.2929 6.98446C30.0049 7.11046 29.7559 7.28446 29.5459 7.50646C29.3359 7.72246 29.1739 7.98046 29.0599 8.28046C28.9459 8.58046 28.8889 8.90446 28.8889 9.25246C28.8889 9.61246 28.9429 9.94246 29.0509 10.2425C29.1649 10.5425 29.3239 10.8005 29.5279 11.0165C29.7319 11.2325 29.9809 11.4005 30.2749 11.5205C30.5689 11.6345 30.8989 11.6915 31.2649 11.6915C31.7929 11.6915 32.2429 11.5715 32.6149 11.3315C32.9869 11.0915 33.2629 10.6925 33.4429 10.1345H32.3179C32.2759 10.2785 32.1619 10.4165 31.9759 10.5485C31.7899 10.6745 31.5679 10.7375 31.3099 10.7375C30.9499 10.7375 30.6739 10.6445 30.4819 10.4585C30.2899 10.2725 30.1849 9.97246 30.1669 9.55846ZM36.7868 5.14846V11.5745H38.0648V9.13546C38.0648 8.66146 38.1428 8.32246 38.2988 8.11846C38.4548 7.90846 38.7068 7.80346 39.0548 7.80346C39.3608 7.80346 39.5738 7.89946 39.6938 8.09146C39.8138 8.27746 39.8738 8.56246 39.8738 8.94646V11.5745H41.1518V8.71246C41.1518 8.42446 41.1248 8.16346 41.0708 7.92946C41.0228 7.68946 40.9358 7.48846 40.8098 7.32646C40.6838 7.15846 40.5098 7.02946 40.2878 6.93946C40.0718 6.84346 39.7928 6.79546 39.4508 6.79546C39.2108 6.79546 38.9648 6.85846 38.7128 6.98446C38.4608 7.10446 38.2538 7.29946 38.0918 7.56946H38.0648V5.14846H36.7868ZM43.4357 6.20146V5.14846H42.1577V6.20146H43.4357ZM42.1577 6.92146V11.5745H43.4357V6.92146H42.1577ZM44.4421 6.92146V11.5745H45.7201V9.47746C45.7201 9.26746 45.7411 9.07246 45.7831 8.89246C45.8251 8.71246 45.8941 8.55646 45.9901 8.42446C46.0921 8.28646 46.2241 8.17846 46.3861 8.10046C46.5481 8.02246 46.7461 7.98346 46.9801 7.98346C47.0581 7.98346 47.1391 7.98946 47.2231 8.00146C47.3071 8.00746 47.3791 8.01646 47.4391 8.02846V6.84046C47.3371 6.81046 47.2441 6.79546 47.1601 6.79546C46.9981 6.79546 46.8421 6.81946 46.6921 6.86746C46.5421 6.91546 46.4011 6.98446 46.2691 7.07446C46.1371 7.15846 46.0201 7.26346 45.9181 7.38946C45.8161 7.50946 45.7351 7.64146 45.6751 7.78546H45.6571V6.92146H44.4421ZM49.2541 6.20146V5.14846H47.9761V6.20146H49.2541ZM47.9761 6.92146V11.5745H49.2541V6.92146H47.9761ZM50.2604 6.92146V11.5745H51.5384V9.13546C51.5384 8.66146 51.6164 8.32246 51.7724 8.11846C51.9284 7.90846 52.1804 7.80346 52.5284 7.80346C52.8344 7.80346 53.0474 7.89946 53.1674 8.09146C53.2874 8.27746 53.3474 8.56246 53.3474 8.94646V11.5745H54.6254V8.71246C54.6254 8.42446 54.5984 8.16346 54.5444 7.92946C54.4964 7.68946 54.4094 7.48846 54.2834 7.32646C54.1574 7.15846 53.9834 7.02946 53.7614 6.93946C53.5454 6.84346 53.2664 6.79546 52.9244 6.79546C52.6544 6.79546 52.3904 6.85846 52.1324 6.98446C51.8744 7.10446 51.6644 7.29946 51.5024 7.56946H51.4754V6.92146H50.2604ZM57.7644 10.4765C57.5664 10.4765 57.4014 10.4345 57.2694 10.3505C57.1374 10.2665 57.0294 10.1585 56.9454 10.0265C56.8674 9.89446 56.8104 9.74746 56.7744 9.58546C56.7444 9.41746 56.7294 9.24946 56.7294 9.08146C56.7294 8.90746 56.7474 8.74246 56.7834 8.58646C56.8254 8.42446 56.8884 8.28346 56.9724 8.16346C57.0624 8.03746 57.1704 7.93846 57.2964 7.86646C57.4284 7.79446 57.5844 7.75846 57.7644 7.75846C57.9744 7.75846 58.1484 7.79746 58.2864 7.87546C58.4244 7.95346 58.5354 8.05846 58.6194 8.19046C58.7034 8.32246 58.7634 8.47546 58.7994 8.64946C58.8354 8.81746 58.8534 8.99746 58.8534 9.18946C58.8534 9.35746 58.8294 9.51946 58.7814 9.67546C58.7394 9.82546 58.6734 9.96046 58.5834 10.0805C58.4934 10.2005 58.3794 10.2965 58.2414 10.3685C58.1034 10.4405 57.9444 10.4765 57.7644 10.4765ZM60.0684 11.2775V6.92146H58.8534V7.54246H58.8354C58.6794 7.27246 58.4844 7.08046 58.2504 6.96646C58.0224 6.85246 57.7554 6.79546 57.4494 6.79546C57.1254 6.79546 56.8374 6.85846 56.5854 6.98446C56.3394 7.11046 56.1324 7.28146 55.9644 7.49746C55.7964 7.70746 55.6674 7.95346 55.5774 8.23546C55.4934 8.51146 55.4514 8.79946 55.4514 9.09946C55.4514 9.41746 55.4874 9.72046 55.5594 10.0085C55.6374 10.2905 55.7574 10.5395 55.9194 10.7555C56.0814 10.9655 56.2884 11.1335 56.5404 11.2595C56.7924 11.3795 57.0924 11.4395 57.4404 11.4395C57.7224 11.4395 57.9894 11.3825 58.2414 11.2685C58.4994 11.1485 58.6974 10.9655 58.8354 10.7195H58.8534V11.3315C58.8594 11.6615 58.7784 11.9345 58.6104 12.1505C58.4484 12.3665 58.1874 12.4745 57.8274 12.4745C57.5994 12.4745 57.3984 12.4265 57.2244 12.3305C57.0504 12.2405 56.9334 12.0755 56.8734 11.8355H55.6044C55.6224 12.0995 55.6944 12.3245 55.8204 12.5105C55.9524 12.7025 56.1144 12.8585 56.3064 12.9785C56.5044 13.0985 56.7204 13.1855 56.9544 13.2395C57.1944 13.2995 57.4284 13.3295 57.6564 13.3295C58.1904 13.3295 58.6164 13.2575 58.9344 13.1135C59.2524 12.9695 59.4954 12.7925 59.6634 12.5825C59.8314 12.3785 59.9394 12.1565 59.9874 11.9165C60.0414 11.6765 60.0684 11.4635 60.0684 11.2775ZM61.1603 10.1885V11.5745H62.5733V10.1885H61.1603ZM62.5283 6.87646V5.14846H61.1963V6.87646L61.5383 9.64846H62.1773L62.5283 6.87646Z" fill="white"/>
</svg>
