<svg width="16" height="16" viewBox="0 0 16 16" fill="none" xmlns="http://www.w3.org/2000/svg">
<path d="M16 0.962021V14.4303C15.9982 14.6849 15.8922 14.9286 15.7051 15.1086C15.5179 15.2886 15.2647 15.3906 15 15.3923H11V9.40472H13L13.336 7.19207H11V5.44408C10.9812 5.31217 10.9938 5.17786 11.0369 5.05134C11.08 4.92482 11.1525 4.8094 11.2489 4.71382C11.3452 4.61825 11.4629 4.54502 11.5931 4.4997C11.7232 4.45438 11.8624 4.43815 12 4.45223H13.5V2.45315C12.9564 2.37985 12.4079 2.3448 11.859 2.34829C9.659 2.34829 8.559 3.521 8.559 5.27187V7.18822H6.559V9.40087H8.559V15.3923H1C0.73535 15.3906 0.48206 15.2886 0.294919 15.1086C0.107779 14.9286 0.00183337 14.6849 0 14.4303V0.962021C0.00183337 0.707422 0.107779 0.463752 0.294919 0.283719C0.48206 0.103686 0.73535 0.00176374 1 0H15C15.2647 0.00176374 15.5179 0.103686 15.7051 0.283719C15.8922 0.463752 15.9982 0.707422 16 0.962021Z" fill="#12131C"/>
</svg>
