<svg width="17" height="15" viewBox="0 0 17 15" fill="none" xmlns="http://www.w3.org/2000/svg">
<path d="M14.9851 4.20701V4.63799C14.9945 5.86998 14.7493 7.09148 14.2639 8.23154C13.7784 9.3716 13.0622 10.4075 12.157 11.279C11.2518 12.1505 10.1756 12.8403 8.99091 13.3083C7.80622 13.7763 6.53667 14.0131 5.25602 14.0051C3.40637 14.0539 1.58135 13.5883 0 12.664C0.269495 12.7021 0.541615 12.7205 0.814003 12.7189C2.37135 12.6746 3.86738 12.125 5.05902 11.1594C4.34594 11.1462 3.65512 10.9182 3.08365 10.5077C2.51219 10.0972 2.0888 9.52477 1.87301 8.87082C2.38642 8.96922 2.91669 8.95011 3.42101 8.81503C2.64548 8.66571 1.94776 8.26235 1.44669 7.67366C0.945615 7.08498 0.672195 6.34739 0.673002 5.58653V5.54709C1.14817 5.79902 1.67872 5.93882 2.22101 5.95498C1.75066 5.65765 1.3642 5.25286 1.09616 4.77678C0.828129 4.3007 0.686868 3.76815 0.685002 3.22673C0.687932 2.66327 0.848558 2.11098 1.15 1.62787C2.01561 2.63293 3.09015 3.45271 4.30463 4.03455C5.51911 4.6164 6.84666 4.94745 8.20203 5.00644C8.14857 4.75649 8.12408 4.5016 8.12903 4.24646C8.12824 3.81494 8.21601 3.38752 8.3873 2.98871C8.55859 2.5899 8.81003 2.22754 9.12721 1.92241C9.44438 1.61729 9.82106 1.3754 10.2356 1.21062C10.6502 1.04583 11.0945 0.961403 11.543 0.962163C12.0131 0.965185 12.4778 1.05818 12.9101 1.23573C13.3424 1.41328 13.7337 1.67183 14.061 1.99632C14.8227 1.84976 15.5528 1.57941 16.2201 1.19689C15.9691 1.96404 15.4324 2.61497 14.7131 3.02471C15.3947 2.94782 16.0599 2.76999 16.6851 2.49753C16.2289 3.16034 15.6532 3.73929 14.9851 4.20701Z" fill="#12131C"/>
</svg>
