<svg width="36" height="36" viewBox="0 0 36 36" fill="none" xmlns="http://www.w3.org/2000/svg">
<g clip-path="url(#clip0)">
<path d="M29.0227 34.8522L23.0148 28.8456L20.1027 31.7578C19.9787 31.882 19.825 31.9725 19.6563 32.0205C19.4875 32.0686 19.3092 32.0727 19.1384 32.0323C18.9676 31.992 18.8099 31.9087 18.6804 31.7902C18.5509 31.6717 18.4539 31.5221 18.3986 31.3555L12.5691 13.8748C12.5089 13.6935 12.5003 13.499 12.5443 13.3131C12.5883 13.1272 12.6831 12.9572 12.8182 12.8221C12.9533 12.687 13.1233 12.5922 13.3092 12.5482C13.4951 12.5042 13.6896 12.5128 13.8709 12.573L31.3464 18.3986C31.513 18.4539 31.6626 18.5509 31.7811 18.6804C31.8996 18.8099 31.9829 18.9675 32.0233 19.1384C32.0636 19.3092 32.0595 19.4874 32.0115 19.6562C31.9634 19.825 31.8729 19.9787 31.7487 20.1027L28.8365 23.0148L34.8431 29.0227C34.9388 29.1183 35.0147 29.2319 35.0665 29.3569C35.1183 29.4818 35.1449 29.6158 35.1449 29.7511C35.1449 29.8863 35.1183 30.0203 35.0665 30.1453C35.0147 30.2703 34.9388 30.3838 34.8431 30.4794L30.4742 34.8483C30.2818 35.0405 30.0212 35.1488 29.7493 35.1495C29.4773 35.1502 29.2161 35.0434 29.0227 34.8522Z" fill="#FF77BB"/>
<path d="M13.3862 8.23787C13.1131 8.23787 12.8512 8.12938 12.658 7.93627C12.4649 7.74315 12.3564 7.48124 12.3564 7.20814V1.02973C12.3564 0.756631 12.4649 0.494714 12.658 0.301602C12.8512 0.108489 13.1131 0 13.3862 0C13.6593 0 13.9212 0.108489 14.1143 0.301602C14.3074 0.494714 14.4159 0.756631 14.4159 1.02973V7.20814C14.4159 7.48124 14.3074 7.74315 14.1143 7.93627C13.9212 8.12938 13.6593 8.23787 13.3862 8.23787Z" fill="#12131C"/>
<path d="M8.29005 9.74547L3.91986 5.37659C3.72669 5.18342 3.61816 4.92142 3.61816 4.64823C3.61816 4.37504 3.72669 4.11304 3.91986 3.91986C4.11304 3.72669 4.37504 3.61816 4.64823 3.61816C4.92142 3.61816 5.18342 3.72669 5.37659 3.91986L9.74547 8.28875C9.93358 8.48279 10.0379 8.743 10.0358 9.01325C10.0338 9.28349 9.92559 9.5421 9.73458 9.73329C9.54357 9.92447 9.28505 10.0329 9.01481 10.0352C8.74456 10.0375 8.48426 9.93341 8.29005 9.74547Z" fill="#12131C"/>
<path d="M3.92 22.8519C3.82431 22.7563 3.7484 22.6427 3.69661 22.5177C3.64482 22.3928 3.61816 22.2588 3.61816 22.1235C3.61816 21.9883 3.64482 21.8543 3.69661 21.7293C3.7484 21.6043 3.82431 21.4908 3.92 21.3952L8.28888 17.0263C8.48205 16.8331 8.74406 16.7246 9.01725 16.7246C9.29044 16.7246 9.55243 16.8331 9.74561 17.0263C9.93878 17.2195 10.0473 17.4815 10.0473 17.7547C10.0473 18.0279 9.93878 18.2898 9.74561 18.483L5.37673 22.8519C5.2811 22.9476 5.16755 23.0235 5.04258 23.0753C4.9176 23.1271 4.78365 23.1537 4.64837 23.1537C4.51308 23.1537 4.37912 23.1271 4.25415 23.0753C4.12917 23.0235 4.01563 22.9476 3.92 22.8519Z" fill="#12131C"/>
<path d="M17.0274 9.74547C16.9317 9.64984 16.8558 9.53629 16.804 9.41132C16.7522 9.28634 16.7256 9.15239 16.7256 9.01711C16.7256 8.88182 16.7522 8.74787 16.804 8.62289C16.8558 8.49792 16.9317 8.38437 17.0274 8.28874L21.3963 3.91986C21.5895 3.72669 21.8515 3.61816 22.1247 3.61816C22.3979 3.61816 22.6598 3.72669 22.853 3.91986C23.0462 4.11303 23.1547 4.37504 23.1547 4.64823C23.1547 4.92142 23.0462 5.18341 22.853 5.37659L18.4841 9.74547C18.3885 9.84116 18.275 9.91707 18.15 9.96886C18.025 10.0206 17.8911 10.0473 17.7558 10.0473C17.6205 10.0473 17.4865 10.0206 17.3616 9.96886C17.2366 9.91707 17.123 9.84116 17.0274 9.74547Z" fill="#12131C"/>
<path d="M7.20814 14.4162H1.02973C0.756631 14.4162 0.494714 14.3077 0.301602 14.1146C0.108489 13.9214 0 13.6595 0 13.3864C0 13.1133 0.108489 12.8514 0.301602 12.6583C0.494714 12.4652 0.756631 12.3567 1.02973 12.3567H7.20814C7.48124 12.3567 7.74315 12.4652 7.93627 12.6583C8.12938 12.8514 8.23787 13.1133 8.23787 13.3864C8.23787 13.6595 8.12938 13.9214 7.93627 14.1146C7.74315 14.3077 7.48124 14.4162 7.20814 14.4162Z" fill="#12131C"/>
</g>
<defs>
<clipPath id="clip0">
<rect width="35.1489" height="35.1489" fill="white"/>
</clipPath>
</defs>
</svg>
